<!-- Created with Inkscape (http://www.inkscape.org/) -->
<svg width="100" height="100" version="1.1" viewBox="0 0 26.458 26.458" xmlns="http://www.w3.org/2000/svg">
  <g transform="translate(0 -270.54)">
    <path d="m19.007 283.87a5.916 5.916 0 0 1-6.2797 5.5196 5.916 5.916 0 0 1-5.5285-6.2718 5.916 5.916 0 0 1 6.264-5.5374 5.916 5.916 0 0 1 5.5463 6.2561" style="fill:#ffce57;paint-order:stroke markers fill;stroke-linecap:round;stroke-width:.79375;stroke:#ffdd7c"/>
    <path d="m11.009 285.34a4.165 4.165 0 0 1-4.421 3.8858 4.165 4.165 0 0 1-3.8921-4.4154 4.165 4.165 0 0 1 4.4099-3.8984 4.165 4.165 0 0 1 3.9046 4.4044" style="fill:#fff;paint-order:stroke markers fill;stroke-linecap:round;stroke-width:.79375;stroke:#b2e8f7"/>
    <path d="m22.324 285.61a3.5408 3.5408 0 0 1-3.7584 3.3035 3.5408 3.5408 0 0 1-3.3088-3.7537 3.5408 3.5408 0 0 1 3.749-3.3142 3.5408 3.5408 0 0 1 3.3195 3.7443" style="fill:#fff;paint-order:stroke markers fill;stroke-linecap:round;stroke-width:.79375;stroke:#b2e8f7"/>
    <path d="m25.087 286.03a2.4845 2.4845 0 0 1-2.6372 2.318 2.4845 2.4845 0 0 1-2.3217-2.6339 2.4845 2.4845 0 0 1 2.6306-2.3254 2.4845 2.4845 0 0 1 2.3292 2.6273" style="fill:#fff;paint-order:stroke markers fill;stroke-linecap:round;stroke-width:.79375;stroke:#b2e8f7"/>
    <path d="m5.4558 285.96a2.4845 2.4845 0 0 1-2.6372 2.318 2.4845 2.4845 0 0 1-2.3217-2.6339 2.4845 2.4845 0 0 1 2.6306-2.3254 2.4845 2.4845 0 0 1 2.3292 2.6273" style="fill:#fff;paint-order:stroke markers fill;stroke-linecap:round;stroke-width:.79375;stroke:#b2e8f7"/>
  </g>
</svg>
